<?xml version="1.0" encoding="UTF-8" standalone="no"?>
<!-- Created with Inkscape (http://www.inkscape.org/) -->
<svg
   xmlns:dc="http://purl.org/dc/elements/1.1/"
   xmlns:cc="http://creativecommons.org/ns#"
   xmlns:rdf="http://www.w3.org/1999/02/22-rdf-syntax-ns#"
   xmlns:svg="http://www.w3.org/2000/svg"
   xmlns="http://www.w3.org/2000/svg"
   xmlns:sodipodi="http://sodipodi.sourceforge.net/DTD/sodipodi-0.dtd"
   xmlns:inkscape="http://www.inkscape.org/namespaces/inkscape"
   id="svg2"
   sodipodi:version="0.32"
   inkscape:version="0.46"
   width="226.25387"
   height="141.35715"
   xml:space="preserve"
   sodipodi:docname="understandable_correlation_diagram.svg"
   inkscape:output_extension="org.inkscape.output.svg.inkscape"><metadata
     id="metadata7"><rdf:RDF><cc:Work
         rdf:about=""><dc:format>image/svg+xml</dc:format><dc:type
           rdf:resource="http://purl.org/dc/dcmitype/StillImage" /></cc:Work></rdf:RDF></metadata><defs
     id="defs5"><marker
       inkscape:stockid="Arrow1Mend"
       orient="auto"
       refY="0.0"
       refX="0.0"
       id="Arrow1Mend"
       style="overflow:visible;"><path
         id="path3240"
         d="M 0.0,0.0 L 5.0,-5.0 L -12.5,0.0 L 5.0,5.0 L 0.0,0.0 z "
         style="fill-rule:evenodd;stroke:#000000;stroke-width:1.0pt;marker-start:none;"
         transform="scale(0.4) rotate(180) translate(10,0)" /></marker><inkscape:perspective
       sodipodi:type="inkscape:persp3d"
       inkscape:vp_x="0 : 526.18109 : 1"
       inkscape:vp_y="0 : 1000 : 0"
       inkscape:vp_z="744.09448 : 526.18109 : 1"
       inkscape:persp3d-origin="372.04724 : 350.78739 : 1"
       id="perspective9" /></defs><sodipodi:namedview
     inkscape:window-height="846"
     inkscape:window-width="1434"
     inkscape:pageshadow="2"
     inkscape:pageopacity="0.0"
     guidetolerance="10.0"
     gridtolerance="10.0"
     objecttolerance="10.0"
     borderopacity="1.0"
     bordercolor="#666666"
     pagecolor="#ffffff"
     id="base"
     showgrid="false"
     inkscape:zoom="2.5192939"
     inkscape:cx="36.319701"
     inkscape:cy="70.678574"
     inkscape:window-x="0"
     inkscape:window-y="0"
     inkscape:current-layer="g11" /><g
     id="g11"
     inkscape:groupmode="layer"
     inkscape:label="understandable_correlation_diagram"
     transform="matrix(1.25,0,0,-1.25,0,141.35714)"><g
       id="g13"><g
         id="g15"
         transform="matrix(1,0,0,-1,0,113.08572)"><path
           d="M 121.527,0.398 L 164.098,0.398 L 164.098,112.688 L 121.527,112.688 L 121.527,0.398 z"
           style="fill:#ffe9aa;fill-opacity:1;fill-rule:evenodd;stroke:#000000;stroke-opacity:1;stroke-width:0.800001;stroke-linecap:butt;stroke-linejoin:miter;stroke-miterlimit:4;stroke-dasharray:none"
           id="path17" /></g><g
         id="g19"
         transform="matrix(1,0,0,-1,0,113.08572)"><path
           d="M 0.801,55.68 L 180.203,55.68"
           style="fill:none;stroke:#0000ff;stroke-opacity:1;stroke-width:1.6;stroke-linecap:butt;stroke-linejoin:miter;stroke-miterlimit:4;stroke-dasharray:none"
           id="path21" /></g><path
         d="M 128.527,57.687 C 128.527,56.426 127.5,55.398 126.238,55.398 C 124.977,55.398 123.953,56.426 123.953,57.687 C 123.953,58.949 124.977,59.972 126.238,59.972 C 127.5,59.972 128.527,58.949 128.527,57.687"
         style="fill:#000000;fill-opacity:1;fill-rule:evenodd;stroke:none"
         id="path23" /><path
         d="M 134.926,56.086 C 134.926,54.824 133.902,53.801 132.641,53.801 C 131.379,53.801 130.355,54.824 130.355,56.086 C 130.355,57.347 131.379,58.371 132.641,58.371 C 133.902,58.371 134.926,57.347 134.926,56.086 z"
         style="fill:#000000;fill-opacity:1;fill-rule:evenodd;stroke:none"
         id="path25" /><path
         d="M 141.324,57.687 C 141.324,56.426 140.301,55.398 139.039,55.398 C 137.777,55.398 136.754,56.426 136.754,57.687 C 136.754,58.949 137.777,59.972 139.039,59.972 C 140.301,59.972 141.324,58.949 141.324,57.687 z"
         style="fill:#000000;fill-opacity:1;fill-rule:evenodd;stroke:none"
         id="path27" /><path
         d="M 147.727,57.687 C 147.727,56.426 146.703,55.398 145.441,55.398 C 144.18,55.398 143.152,56.426 143.152,57.687 C 143.152,58.949 144.18,59.972 145.441,59.972 C 146.703,59.972 147.727,58.949 147.727,57.687 z"
         style="fill:#000000;fill-opacity:1;fill-rule:evenodd;stroke:none"
         id="path29" /><path
         d="M 154.125,56.086 C 154.125,54.824 153.102,53.801 151.84,53.801 C 150.578,53.801 149.555,54.824 149.555,56.086 C 149.555,57.347 150.578,58.371 151.84,58.371 C 153.102,58.371 154.125,57.347 154.125,56.086 z"
         style="fill:#000000;fill-opacity:1;fill-rule:evenodd;stroke:none"
         id="path31" /><path
         d="M 160.527,57.687 C 160.527,56.426 159.5,55.398 158.238,55.398 C 156.977,55.398 155.953,56.426 155.953,57.687 C 155.953,58.949 156.977,59.972 158.238,59.972 C 159.5,59.972 160.527,58.949 160.527,57.687 z"
         style="fill:#000000;fill-opacity:1;fill-rule:evenodd;stroke:none"
         id="path33" /><g
         id="g35"
         transform="matrix(1,0,0,-1,0,113.08572)"><path
           d="M 0.801,55.68 L 180.203,66.992"
           style="fill:none;stroke:#0000ff;stroke-opacity:1;stroke-width:1.6;stroke-linecap:butt;stroke-linejoin:miter;stroke-miterlimit:4;stroke-dasharray:none"
           id="path37" /></g><g
         id="g39"
         transform="matrix(1,0,0,-1,0,113.08572)"><path
           d="M 0.801,55.68 L 180.203,78.305"
           style="fill:none;stroke:#0000ff;stroke-opacity:1;stroke-width:1.6;stroke-linecap:butt;stroke-linejoin:miter;stroke-miterlimit:4;stroke-dasharray:none"
           id="path41" /></g><g
         id="g43"
         transform="matrix(1,0,0,-1,0,113.08572)"><path
           d="M 0.801,55.68 L 180.203,90.426"
           style="fill:none;stroke:#0000ff;stroke-opacity:1;stroke-width:1.6;stroke-linecap:butt;stroke-linejoin:miter;stroke-miterlimit:4;stroke-dasharray:none"
           id="path45" /></g><g
         id="g47"
         transform="matrix(1,0,0,-1,0,113.08572)"><path
           d="M 0.801,55.68 L 180.203,103.355"
           style="fill:none;stroke:#0000ff;stroke-opacity:1;stroke-width:1.6;stroke-linecap:butt;stroke-linejoin:miter;stroke-miterlimit:4;stroke-dasharray:none"
           id="path49" /></g><g
         id="g51"
         transform="matrix(1,0,0,-1,0,113.08572)"><path
           d="M 0.801,55.523 L 180.203,44.211"
           style="fill:none;stroke:#0000ff;stroke-opacity:1;stroke-width:1.6;stroke-linecap:butt;stroke-linejoin:miter;stroke-miterlimit:4;stroke-dasharray:none"
           id="path53" /></g><g
         id="g55"
         transform="matrix(1,0,0,-1,0,113.08572)"><path
           d="M 0.801,55.523 L 180.203,32.898"
           style="fill:none;stroke:#0000ff;stroke-opacity:1;stroke-width:1.6;stroke-linecap:butt;stroke-linejoin:miter;stroke-miterlimit:4;stroke-dasharray:none"
           id="path57" /></g><g
         id="g59"
         transform="matrix(1,0,0,-1,0,113.08572)"><path
           d="M 0.801,55.523 L 180.203,20.777"
           style="fill:none;stroke:#0000ff;stroke-opacity:1;stroke-width:1.6;stroke-linecap:butt;stroke-linejoin:miter;stroke-miterlimit:4;stroke-dasharray:none"
           id="path61" /></g><g
         id="g63"
         transform="matrix(1,0,0,-1,0,113.08572)"><path
           d="M 0.801,55.523 L 180.203,7.844"
           style="fill:none;stroke:#0000ff;stroke-opacity:1;stroke-width:1.6;stroke-linecap:butt;stroke-linejoin:miter;stroke-miterlimit:4;stroke-dasharray:none"
           id="path65" /></g></g><text
       xml:space="preserve"
       style="font-size:11.19999981px;font-style:normal;font-variant:normal;font-weight:normal;font-stretch:normal;text-align:start;line-height:125%;writing-mode:lr-tb;text-anchor:start;fill:#000000;fill-opacity:1;stroke:none;stroke-width:1px;stroke-linecap:butt;stroke-linejoin:miter;stroke-opacity:1;font-family:Bitstream Vera Sans;-inkscape-font-specification:Bitstream Vera Sans"
       x="0.9526481"
       y="-39.058556"
       id="text2438"
       sodipodi:linespacing="125%"
       transform="scale(1,-1)"><tspan
         sodipodi:role="line"
         x="0.9526481"
         y="-39.058556"
         id="tspan2442">dense</tspan><tspan
         sodipodi:role="line"
         x="0.9526481"
         y="-25.058554"
         id="tspan2446">material</tspan></text>
<text
       xml:space="preserve"
       style="font-size:11.19999981px;font-style:normal;font-variant:normal;font-weight:normal;font-stretch:normal;text-align:start;line-height:125%;writing-mode:lr-tb;text-anchor:start;fill:#000000;fill-opacity:1;stroke:none;stroke-width:1px;stroke-linecap:butt;stroke-linejoin:miter;stroke-opacity:1;font-family:Bitstream Vera Sans;-inkscape-font-specification:Bitstream Vera Sans"
       x="-8.8950729"
       y="-109.14909"
       id="text2448"
       sodipodi:linespacing="125%"
       transform="matrix(0,-1,-1,0,0,0)"><tspan
         sodipodi:role="line"
         id="tspan2450"
         x="-8.8950729"
         y="-109.14909">x</tspan></text>
<text
       xml:space="preserve"
       style="font-size:11.19999981px;font-style:normal;font-variant:normal;font-weight:normal;font-stretch:normal;text-align:start;line-height:125%;writing-mode:lr-tb;text-anchor:start;fill:#000000;fill-opacity:1;stroke:none;stroke-width:1px;stroke-linecap:butt;stroke-linejoin:miter;stroke-opacity:1;font-family:Bitstream Vera Sans;-inkscape-font-specification:Bitstream Vera Sans"
       x="147.08107"
       y="-63.695244"
       id="text2452"
       sodipodi:linespacing="125%"
       transform="matrix(0.9734563,0.2288728,0.2288728,-0.9734563,0,0)"><tspan
         sodipodi:role="line"
         id="tspan2454"
         x="147.08107"
         y="-63.695244">dx/dz</tspan></text>
<path
       style="opacity:1;fill:none;fill-opacity:1;fill-rule:evenodd;stroke:#000000;stroke-width:1;stroke-linecap:butt;stroke-linejoin:miter;marker:none;marker-start:none;marker-mid:none;marker-end:url(#Arrow1Mend);stroke-miterlimit:4;stroke-dasharray:none;stroke-dashoffset:0;stroke-opacity:1;visibility:visible;display:inline;overflow:visible;enable-background:accumulate"
       d="M 140.11863,112.38077 L 140.11863,127.06743"
       id="path2456"
       transform="matrix(0.8,0,0,-0.8,0,113.08571)" /><text
       xml:space="preserve"
       style="font-size:11.19999981px;font-style:normal;font-variant:normal;font-weight:normal;font-stretch:normal;text-indent:0;text-align:start;text-decoration:none;line-height:125%;letter-spacing:normal;word-spacing:normal;text-transform:none;direction:ltr;block-progression:tb;writing-mode:lr-tb;text-anchor:start;opacity:1;fill:#000000;fill-opacity:1;fill-rule:nonzero;stroke:none;stroke-width:1.25px;stroke-linecap:butt;stroke-linejoin:miter;marker:none;marker-start:none;marker-mid:none;marker-end:none;stroke-miterlimit:4;stroke-dasharray:none;stroke-dashoffset:0;stroke-opacity:1;visibility:visible;display:inline;overflow:visible;enable-background:accumulate;font-family:Bitstream Vera Sans;-inkscape-font-specification:Bitstream Vera Sans"
       x="43.550179"
       y="-59.498188"
       id="text4006"
       sodipodi:linespacing="125%"
       transform="matrix(0.9689092,0.2474165,0.2474165,-0.9689092,0,0)"><tspan
         sodipodi:role="line"
         id="tspan4008"
         x="43.550179"
         y="-59.498188">possible tracks</tspan></text>
</g></svg>